<?xml version="1.0" encoding="UTF-8"?><svg id="Livello_1" xmlns="http://www.w3.org/2000/svg" viewBox="0 0 3000 560"><defs><style>.cls-1{fill:#f93262;stroke-width:0px;}</style></defs><path class="cls-1" d="M162.48,472.47c-41.2,0-74.6-33.4-74.6-74.6,0-14.15,3.94-27.38,10.78-38.66l-59.6-59.6c-21.32,26.78-34.06,60.69-34.06,97.57v1.37c0,86.6,70.2,156.8,156.8,156.8h133.01l-93.67-93.67c-11.27,6.84-24.5,10.79-38.66,10.79Z"/><path class="cls-1" d="M401.3,364.31l-56.26-131.27c-31.27-72.97-102.77-120.11-182.16-120.11H36.14v77.34h126.75c48.4,0,92,28.75,111.07,73.24l20.63,48.14c-27.98-42.9-76.38-71.26-131.42-71.26h-1.37c-36.89,0-70.8,12.75-97.58,34.06l59.61,59.6c11.27-6.84,24.5-10.78,38.65-10.78,41.2,0,74.6,33.4,74.6,74.6,0,14.15-3.94,27.38-10.78,38.65l93.67,93.67v-133.01c0-12.41-1.45-24.49-4.17-36.07l14.42,33.66c41.76,97.45,137.26,160.42,243.29,160.42h54.27v-77.34h-54.27c-75.04,0-142.64-44.57-172.2-113.55Z"/><path class="cls-1" d="M573.5,369.58c-31.67,0-60.2-18.81-72.67-47.92l-56.26-131.27C396.21,77.55,285.65,4.65,162.89,4.65H36.14v77.34h126.75c91.78,0,174.44,54.51,210.59,138.86l56.26,131.27c24.68,57.59,81.11,94.8,143.76,94.8h54.27v-77.34h-54.27Z"/><path class="cls-1" d="M815.32,374.65c-6.92,0-14.3-.79-22.15-2.39-7.85-1.6-15.23-4.45-22.15-8.59-6.92-4.12-12.56-10.11-16.96-17.96-4.39-7.84-6.58-17.89-6.58-30.13,0-14.63,3.19-26.74,9.58-36.32s15.49-17.09,27.34-22.55c11.83-5.44,26-9.24,42.49-11.37,16.49-2.13,34.72-3.19,54.67-3.19v-15.57c0-6.11-1-11.43-3-15.96-1.99-4.52-5.45-8.11-10.37-10.77-4.93-2.66-11.78-3.99-20.55-3.99s-15.9,1.06-21.35,3.19c-5.45,2.14-9.31,4.85-11.57,8.19-2.26,3.32-3.39,6.98-3.39,10.97v4.79h-53.87c-.27-1.33-.4-2.59-.4-3.79v-4.58c0-12.24,3.72-22.81,11.17-31.73,7.45-8.9,17.96-15.75,31.53-20.55,13.57-4.79,29.39-7.18,47.49-7.18,19.41,0,35.72,2.53,48.89,7.58,13.17,5.06,23.28,12.51,30.32,22.35,7.05,9.84,10.57,22.21,10.57,37.11v95.38c0,4.79,1.4,8.32,4.19,10.57,2.79,2.26,5.92,3.39,9.38,3.39h13.17v36.32c-2.66,1.33-6.79,2.73-12.38,4.19-5.58,1.46-12.37,2.19-20.35,2.19s-14.57-1.13-20.55-3.39c-5.98-2.26-10.98-5.45-14.96-9.58-3.99-4.13-6.79-9.11-8.38-14.97h-2.8c-4.53,5.59-10.04,10.52-16.56,14.77-6.52,4.27-14.1,7.59-22.75,9.98-8.65,2.4-18.55,3.59-29.74,3.59ZM834.08,332.75c7.45,0,14.09-1.13,19.95-3.4,5.84-2.26,10.77-5.32,14.77-9.17,3.99-3.85,7.11-8.59,9.38-14.17,2.25-5.59,3.39-11.57,3.39-17.96v-11.57c-14.91,0-28.21,1-39.91,3-11.7,1.99-20.94,5.39-27.73,10.17-6.79,4.79-10.18,11.44-10.18,19.95,0,4.79,1.2,8.91,3.59,12.37,2.4,3.46,5.85,6.12,10.38,7.98,4.52,1.87,9.98,2.8,16.36,2.8Z"/><path class="cls-1" d="M991.31,369.86v-209.91h45.89l4.39,28.73h2.79c4.79-6.92,10.57-12.9,17.36-17.96,6.79-5.05,14.43-8.9,22.95-11.57,8.51-2.65,17.82-3.99,27.93-3.99,13.83,0,25.94,2.53,36.32,7.58,10.37,5.06,18.41,13.04,24.14,23.95,5.72,10.91,8.59,25.13,8.59,42.7v140.47h-55.47v-131.69c0-6.65-.8-12.3-2.4-16.96-1.6-4.65-3.93-8.51-6.98-11.57-3.06-3.05-6.85-5.25-11.38-6.58-4.53-1.33-9.58-2-15.17-2-8.24,0-15.7,2-22.34,5.98-6.65,3.99-11.84,9.45-15.57,16.36-3.72,6.93-5.58,14.91-5.58,23.95v122.51h-55.47Z"/><path class="cls-1" d="M1294.2,374.65c-13.31,0-24.09-2.39-32.33-7.19-8.25-4.79-14.23-11.23-17.96-19.35-3.72-8.11-5.58-17.09-5.58-26.94v-118.52h-25.95v-42.7h27.93l10.38-59.86h43.1v59.86h38.3v42.7h-38.3v109.34c0,6.38,1.46,11.25,4.39,14.57,2.92,3.33,7.71,4.98,14.36,4.98h19.55v36.72c-3.19,1.06-6.92,2.05-11.17,3-4.26.92-8.77,1.73-13.57,2.39-4.79.66-9.17,1-13.16,1Z"/><path class="cls-1" d="M1368.03,129.23v-47.89h55.47v47.89h-55.47ZM1368.03,369.86v-209.91h55.47v209.91h-55.47Z"/><path class="cls-1" d="M1484.15,369.86v-167.21h-29.93v-42.7h29.93v-23.15c0-11.43,1.92-21.62,5.79-30.53,3.85-8.91,10.03-15.89,18.55-20.95,8.51-5.05,19.81-7.58,33.92-7.58,3.99,0,8.19.27,12.57.79,4.4.54,8.64,1.27,12.77,2.2,4.13.93,7.64,1.93,10.57,2.99v36.72h-19.95c-6.38,0-11.12,1.6-14.17,4.79-3.06,3.19-4.59,7.85-4.59,13.97v20.75h38.71v42.7h-38.71v167.21h-55.47Z"/><path class="cls-1" d="M1604.26,369.86v-209.91h45.89l4.4,32.72h2.79c2.65-6.92,6.11-13.23,10.38-18.96,4.25-5.72,9.58-10.3,15.96-13.77,6.38-3.45,13.83-5.19,22.34-5.19,4.53,0,8.64.47,12.38,1.4,3.72.93,6.51,1.79,8.38,2.59v50.28h-17.16c-8.25,0-15.5,1.14-21.75,3.39-6.25,2.27-11.52,5.79-15.76,10.57-4.26,4.8-7.38,10.65-9.38,17.57-2,6.92-3,15.04-3,24.34v104.95h-55.47Z"/><path class="cls-1" d="M1807.38,374.65c-6.92,0-14.3-.79-22.15-2.39-7.85-1.6-15.23-4.45-22.15-8.59-6.92-4.12-12.56-10.11-16.96-17.96-4.39-7.84-6.58-17.89-6.58-30.13,0-14.63,3.19-26.74,9.58-36.32,6.38-9.58,15.49-17.09,27.34-22.55,11.83-5.44,26-9.24,42.49-11.37,16.49-2.13,34.72-3.19,54.67-3.19v-15.57c0-6.11-1-11.43-3-15.96-1.99-4.52-5.45-8.11-10.37-10.77-4.93-2.66-11.78-3.99-20.55-3.99s-15.9,1.06-21.35,3.19c-5.45,2.14-9.31,4.85-11.57,8.19-2.26,3.32-3.39,6.98-3.39,10.97v4.79h-53.87c-.27-1.33-.4-2.59-.4-3.79v-4.58c0-12.24,3.72-22.81,11.17-31.73,7.45-8.9,17.96-15.75,31.53-20.55,13.57-4.79,29.39-7.18,47.49-7.18,19.41,0,35.72,2.53,48.89,7.58,13.17,5.06,23.28,12.51,30.32,22.35,7.05,9.84,10.57,22.21,10.57,37.11v95.38c0,4.79,1.4,8.32,4.19,10.57,2.79,2.26,5.92,3.39,9.38,3.39h13.17v36.32c-2.66,1.33-6.79,2.73-12.38,4.19-5.58,1.46-12.37,2.19-20.35,2.19s-14.57-1.13-20.55-3.39c-5.98-2.26-10.98-5.45-14.96-9.58-3.99-4.13-6.79-9.11-8.38-14.97h-2.8c-4.53,5.59-10.04,10.52-16.56,14.77-6.52,4.27-14.1,7.59-22.75,9.98-8.65,2.4-18.55,3.59-29.74,3.59ZM1826.14,332.75c7.45,0,14.09-1.13,19.95-3.4,5.84-2.26,10.77-5.32,14.77-9.17,3.99-3.85,7.11-8.59,9.38-14.17,2.25-5.59,3.39-11.57,3.39-17.96v-11.57c-14.91,0-28.21,1-39.91,3-11.7,1.99-20.94,5.39-27.73,10.17-6.79,4.79-10.18,11.44-10.18,19.95,0,4.79,1.2,8.91,3.59,12.37,2.4,3.46,5.85,6.12,10.38,7.98,4.52,1.87,9.98,2.8,16.36,2.8Z"/><path class="cls-1" d="M2017.69,444.88c-9.31,0-18.1-1.93-26.34-5.79-8.25-3.85-14.91-9.51-19.95-16.96-5.06-7.45-7.58-16.36-7.58-26.74,0-11.7,3.39-21.08,10.17-28.13,6.79-7.05,14.43-12.3,22.94-15.76-6.12-3.45-11.11-7.98-14.96-13.57-3.85-5.58-5.79-12.1-5.79-19.55,0-10.37,3.79-18.82,11.38-25.34,7.58-6.51,16.29-10.71,26.13-12.57-9.85-6.11-17.49-13.9-22.94-23.34-5.46-9.44-8.19-20.01-8.19-31.72,0-15.17,3.79-27.93,11.38-38.31,7.58-10.37,18.49-18.28,32.72-23.74,14.22-5.45,31.05-8.18,50.48-8.18,7.71,0,14.96.4,21.75,1.19,6.79.8,12.96,2.14,18.55,3.99,9.84-5.85,16.56-12.3,20.15-19.36,3.59-7.05,5.52-12.7,5.79-16.96h51.48c0,9.85-1.8,18.36-5.39,25.54-3.59,7.19-8.72,13.1-15.37,17.76-6.65,4.66-14.63,8.05-23.94,10.17,6.92,5.86,12.24,12.91,15.96,21.15,3.72,8.25,5.59,17.16,5.59,26.74,0,14.91-3.59,27.61-10.77,38.11-7.19,10.52-17.36,18.55-30.53,24.15-13.17,5.59-28.93,8.38-47.29,8.38h-31.93c-6.38,0-11.17,1.14-14.36,3.39-3.19,2.27-4.79,5.53-4.79,9.78,0,3.46,1.4,6.45,4.19,8.98,2.79,2.53,7.38,3.79,13.77,3.79h87.4c17.56,0,31.58,5.39,42.1,16.17,10.5,10.77,15.76,24.54,15.76,41.3,0,12.77-3.33,24.08-9.98,33.92-6.65,9.85-15.84,17.57-27.54,23.15-11.7,5.59-25.13,8.38-40.3,8.38h-99.76ZM2040.84,407.77h73.83c4.79,0,9.03-.87,12.77-2.59,3.72-1.74,6.65-4.13,8.78-7.19,2.12-3.06,3.19-6.58,3.19-10.57,0-6.92-2.14-12.11-6.38-15.56-4.27-3.45-9.59-5.19-15.97-5.19h-76.22c-6.38,0-11.65,1.87-15.76,5.59-4.13,3.71-6.19,8.63-6.19,14.77s2.06,11.1,6.19,14.96c4.12,3.85,9.38,5.79,15.76,5.79ZM2077.16,260.12c13.03,0,22.94-3,29.73-8.98,6.79-5.99,10.17-14.57,10.17-25.74s-3.39-19.75-10.17-25.74c-6.79-5.98-16.7-8.98-29.73-8.98s-22.55,3-29.33,8.98c-6.79,5.99-10.17,14.57-10.17,25.74,0,7.19,1.46,13.44,4.39,18.76,2.92,5.32,7.32,9.31,13.17,11.97,5.85,2.67,13.17,3.99,21.95,3.99Z"/><path class="cls-1" d="M2225.6,129.23v-47.89h55.47v47.89h-55.47ZM2225.6,369.86v-209.91h55.47v209.91h-55.47Z"/><path class="cls-1" d="M2424.34,374.65c-22.35,0-41.1-3.93-56.27-11.77-15.17-7.85-26.67-19.95-34.52-36.32-7.85-16.36-11.77-36.91-11.77-61.66s3.92-45.96,11.77-62.06c7.85-16.09,19.42-28.13,34.72-36.11,15.3-7.98,33.98-11.97,56.07-11.97,14.36,0,27.33,1.74,38.9,5.19,11.57,3.46,21.62,8.78,30.13,15.96,8.51,7.19,14.97,16.03,19.36,26.53,4.4,10.52,6.59,22.95,6.59,37.31h-55.48c0-9.58-1.47-17.42-4.39-23.54-2.93-6.12-7.38-10.78-13.37-13.97-5.99-3.19-13.51-4.79-22.55-4.79-10.64,0-19.29,2.4-25.94,7.19-6.65,4.79-11.57,11.83-14.77,21.15-3.19,9.31-4.79,20.89-4.79,34.72v9.17c0,13.57,1.65,25.01,4.98,34.32,3.32,9.31,8.45,16.3,15.36,20.95,6.92,4.66,15.97,6.98,27.14,6.98,9.04,0,16.56-1.6,22.55-4.79,5.98-3.19,10.57-7.98,13.77-14.36,3.19-6.38,4.79-14.1,4.79-23.15h52.68c0,13.57-2.19,25.68-6.59,36.32-4.39,10.64-10.77,19.55-19.15,26.73-8.38,7.19-18.42,12.65-30.13,16.36-11.71,3.72-24.74,5.59-39.11,5.59Z"/><path class="cls-1" d="M2560.81,129.23v-47.89h55.47v47.89h-55.47ZM2560.81,369.86v-209.91h55.47v209.91h-55.47Z"/><path class="cls-1" d="M2730.02,374.65c-13.31,0-24.08-2.39-32.32-7.19-8.25-4.79-14.24-11.23-17.96-19.35-3.73-8.11-5.59-17.09-5.59-26.94v-118.52h-25.94v-42.7h27.93l10.38-59.86h43.09v59.86h38.31v42.7h-38.31v109.34c0,6.38,1.47,11.25,4.4,14.57,2.92,3.33,7.71,4.98,14.36,4.98h19.55v36.72c-3.19,1.06-6.93,2.05-11.17,3-4.27.92-8.78,1.73-13.57,2.39-4.79.66-9.17,1-13.17,1Z"/><path class="cls-1" d="M2834.18,444.88c-9.85,0-18.03-.74-24.55-2.19-6.52-1.47-10.71-2.46-12.57-3v-37.51h24.34c6.65,0,12.64-1.53,17.97-4.58,5.31-3.06,9.97-7.06,13.96-11.97,3.99-4.93,6.92-10.17,8.78-15.76l-82.21-209.91h58.66l35.91,96.97c1.6,4.53,3.4,10.17,5.39,16.96,2,6.79,4.06,13.83,6.19,21.15,2.13,7.32,3.85,13.77,5.19,19.36h2c1.05-3.72,2.26-8.11,3.59-13.17,1.33-5.05,2.72-10.24,4.18-15.57,1.47-5.32,2.93-10.43,4.4-15.36,1.46-4.92,2.73-9.24,3.79-12.96l29.93-97.38h55.87l-71.44,199.93c-3.99,11.7-8.58,22.68-13.77,32.93-5.19,10.24-11.24,19.28-18.15,27.13-6.93,7.84-15.1,13.96-24.55,18.36-9.45,4.39-20.42,6.58-32.92,6.58Z"/></svg>