<?xml version="1.0" encoding="UTF-8"?><svg id="Livello_1" xmlns="http://www.w3.org/2000/svg" viewBox="0 0 300 300"><defs><style>.cls-1{fill:#f93262;}.cls-1,.cls-2{stroke-width:0px;}.cls-2{fill:#ffbea1;}</style></defs><rect class="cls-1" x="-16.21" y="-16.21" width="332.43" height="332.43"/><path class="cls-2" d="M110.5,202.51c-12.81,0-23.2-10.39-23.2-23.2,0-4.4,1.23-8.52,3.35-12.02l-18.54-18.54c-6.63,8.33-10.59,18.87-10.59,30.34v.43c0,26.93,21.83,48.76,48.76,48.76h41.36l-29.13-29.13c-3.51,2.13-7.62,3.35-12.02,3.35Z"/><path class="cls-2" d="M184.76,168.88l-17.5-40.82c-9.72-22.69-31.96-37.35-56.65-37.35h-39.42v24.05h39.42c15.05,0,28.61,8.94,34.54,22.78l6.42,14.97c-8.7-13.34-23.75-22.16-40.87-22.16h-.43c-11.47,0-22.02,3.96-30.34,10.59l18.54,18.54c3.51-2.13,7.62-3.35,12.02-3.35,12.81,0,23.2,10.39,23.2,23.2,0,4.4-1.23,8.51-3.35,12.02l29.13,29.13v-41.36c0-3.86-.45-7.61-1.3-11.22l4.49,10.47c12.99,30.31,42.68,49.89,75.66,49.89h16.88v-24.05h-16.88c-23.34,0-44.36-13.86-53.55-35.31Z"/><path class="cls-2" d="M238.31,170.52c-9.85,0-18.72-5.85-22.6-14.9l-17.5-40.82c-15.04-35.09-49.42-57.76-87.6-57.76h-39.42v24.05h39.42c28.54,0,54.25,16.95,65.49,43.18l17.5,40.82c7.67,17.91,25.22,29.48,44.71,29.48h16.88v-24.05h-16.88Z"/></svg>